<?xml version="1.0" encoding="UTF-8" standalone="no"?>
<!-- Created with Inkscape (http://www.inkscape.org/) -->

<svg
   xmlns:dc="http://purl.org/dc/elements/1.1/"
   xmlns:cc="http://creativecommons.org/ns#"
   xmlns:rdf="http://www.w3.org/1999/02/22-rdf-syntax-ns#"
   xmlns:svg="http://www.w3.org/2000/svg"
   xmlns="http://www.w3.org/2000/svg"
   xmlns:sodipodi="http://sodipodi.sourceforge.net/DTD/sodipodi-0.dtd"
   xmlns:inkscape="http://www.inkscape.org/namespaces/inkscape"
   version="1.1"
   id="svg2"
   width="352"
   height="512"
   viewBox="0 0 352 512"
   sodipodi:docname="close2.svg"
   inkscape:version="0.92.3 (2405546, 2018-03-11)">
  <metadata
     id="metadata8">
    <rdf:RDF>
      <cc:Work
         rdf:about="">
        <dc:format>image/svg+xml</dc:format>
        <dc:type
           rdf:resource="http://purl.org/dc/dcmitype/StillImage" />
        <dc:title></dc:title>
      </cc:Work>
    </rdf:RDF>
  </metadata>
  <defs
     id="defs6" />
  <sodipodi:namedview
     pagecolor="#ffffff"
     bordercolor="#666666"
     borderopacity="1"
     objecttolerance="10"
     gridtolerance="10"
     guidetolerance="10"
     inkscape:pageopacity="0"
     inkscape:pageshadow="2"
     inkscape:window-width="1600"
     inkscape:window-height="837"
     id="namedview4"
     showgrid="false"
     inkscape:zoom="0.4609375"
     inkscape:cx="176"
     inkscape:cy="256"
     inkscape:window-x="-8"
     inkscape:window-y="-8"
     inkscape:window-maximized="1"
     inkscape:current-layer="svg2" />
  <g
     id="g12"
     transform="translate(0.5084747,15.18644)"
     style="fill:#ffffff">
    <path
       style="fill:#ffffff"
       d="M 44.324175,429.62085 C 37.403684,427.35694 34.115772,424.74688 19.370263,409.81159 1.8352468,392.05089 0.50646918,389.74008 0.50276335,377 0.50027861,368.45784 0.78276357,366.99001 3.3045041,362.44186 5.2582084,358.91821 21.713308,341.78163 57.545695,305.95431 L 108.98238,254.5249 56.189243,201.51245 C -2.2436972,142.83677 -0.01553022,145.58162 -0.00494608,132.28751 0.00431345,120.65716 2.4071329,116.50843 18.833387,99.761073 36.360214,81.891631 41.714484,78.604352 53.398846,78.539446 67.233448,78.462596 64.426264,76.199335 123.25,134.85619 l 52.75,52.60035 52.75,-52.60035 c 58.82374,-58.656855 56.01655,-56.393594 69.85115,-56.316744 11.68437,0.06491 17.03864,3.352185 34.56546,21.221627 16.42626,16.747357 18.82908,20.896087 18.83834,32.526437 0.0106,13.29411 2.23875,10.54926 -56.19419,69.22494 l -52.79314,53.01245 51.43668,51.42941 c 35.83239,35.82732 52.28749,52.9639 54.2412,56.48755 2.52174,4.54815 2.80422,6.01598 2.80174,14.55814 -0.004,12.78797 -1.31189,15.03708 -19.36658,33.29679 C 314.54338,428.08377 310.58108,430.5 299,430.5 c -14.35423,0 -11.25576,2.4858 -70.2546,-56.36311 l -52.7546,-52.62055 -52.2454,52.20649 c -43.032488,43.00044 -53.124255,52.59189 -57.229289,54.39208 -6.137025,2.69129 -16.432771,3.38995 -22.191936,1.50594 z"
       id="path26"
       inkscape:connector-curvature="0" />
    <path
       style="fill:#ffffff"
       d="M 45.286039,429.61184 C 37.523137,427.07044 32.582537,423.27038 18.933841,409.34308 3.2755258,393.36514 0.73266145,389.18242 0.18294242,378.5 c -0.27793849,-5.40104 0.14426763,-8.37054 1.84835388,-13 2.1048375,-5.71818 4.6684683,-8.46653 54.5797347,-58.51254 L 108.98219,254.47491 57.545599,203.04559 C 21.713283,167.21834 5.2582082,150.08179 3.3045041,146.55814 0.81252747,142.06367 0.5,140.49409 0.5,132.47331 0.5,120.04793 2.0479754,117.44571 20.5,98.852446 38.124406,81.093132 42.048996,78.686936 53.445877,78.653081 67.146278,78.612384 65.199751,77.04155 123.75,135.38801 l 52.25,52.06813 52.25,-52.06813 c 58.55025,-58.34646 56.60372,-56.775626 70.30412,-56.734929 11.70326,0.03476 16.18997,2.735462 33.45222,20.135968 17.84018,17.983061 19.44522,20.761531 19.4738,33.710951 0.0177,8.01213 -0.28797,9.5552 -2.78464,14.05814 -1.95371,3.52365 -18.40878,20.6602 -54.2411,56.48745 l -51.43659,51.42932 52.37116,52.51255 c 49.29378,49.42685 52.49573,52.85262 54.49109,58.30005 2.7719,7.56738 2.76076,15.92473 -0.0312,23.38683 -1.8345,4.90314 -4.28991,7.92997 -16.68228,20.56459 C 315.61947,427.12908 310.12646,430.5 298.52103,430.5 c -13.77533,0 -11.03356,2.21464 -69.77545,-56.36061 l -52.75443,-52.60477 -52.24557,52.19035 c -41.583612,41.53966 -53.20957,52.61432 -56.969305,54.26787 -6.094294,2.68028 -15.974769,3.42465 -21.490236,1.619 z"
       id="path24"
       inkscape:connector-curvature="0" />
    <path
       style="fill:#ffffff"
       d="M 46.734467,429.91195 C 39.131428,428.12069 34.295419,424.54851 19.949796,410.12709 2.3253857,392.40955 0.56054431,389.39984 0.52462347,377 0.50451052,370.05703 0.93880103,367.5841 2.8954695,363.5 4.7697681,359.58783 16.570722,347.18386 57.136467,306.48736 L 108.982,254.47472 57.459495,202.98736 C -1.1645068,144.40334 0.49015309,146.46602 0.51402925,132 0.53412597,119.82386 2.3268472,116.93241 21.656407,97.899824 35.249463,84.515609 38.23563,82.057241 42.678772,80.593116 51.295667,77.753637 60.678035,78.347897 68.5,82.22858 c 2.523587,1.252018 23.101093,21.0381 55.75,53.60583 l 51.75,51.62132 51.75,-51.62132 c 32.64891,-32.56773 53.22641,-52.353812 55.75,-53.60583 7.82197,-3.880683 17.20433,-4.474943 25.82123,-1.635464 4.44314,1.464125 7.42931,3.922493 21.02236,17.306708 19.32956,19.032586 21.12228,21.924036 21.14238,34.100176 0.0239,14.46602 1.67854,12.40334 -56.94547,70.98736 l -51.5225,51.48736 51.84553,52.01264 c 40.56575,40.6965 52.3667,53.10047 54.241,57.01264 1.95667,4.0841 2.39096,6.55703 2.37085,13.5 -0.0361,12.45591 -1.77761,15.42562 -19.48548,33.22746 -17.36994,17.4621 -21.92039,20.20157 -33.4899,20.16163 -13.68069,-0.0472 -11.78217,1.48723 -70.25915,-56.78624 L 175.9817,321.52558 124.74085,372.6209 c -28.182468,28.10242 -52.64816,52.05051 -54.368205,53.21797 -3.432888,2.33003 -13.327796,5.21907 -17.332744,5.06068 -1.396945,-0.0553 -4.234391,-0.49967 -6.305434,-0.9876 z"
       id="path22"
       inkscape:connector-curvature="0" />
    <path
       style="fill:#ffffff"
       d="m 46.987427,429.65553 c -3.031914,-0.65941 -7.081914,-2.17446 -9,-3.36678 C 36.069342,425.09644 27.700226,417.23121 19.389392,408.81046 1.9794975,391.1703 0.45260839,388.50813 0.57097202,376 0.69559378,362.83054 -0.16068232,363.88184 57.583593,306.00211 L 108.96096,254.50422 57.12595,202.50211 C -1.0895813,144.09891 0.5,146.06398 0.5,132.5 0.5,120.36174 2.7246871,116.65566 20.731865,98.796011 38.824851,80.851252 42.759805,78.584537 54.814738,79.162701 68.258411,79.80747 66.749734,78.575308 124.25,135.87162 l 51.75,51.56643 51.75,-51.56643 c 40.38683,-40.243582 52.84789,-52.093998 56.75,-53.969031 4.15224,-1.995227 6.52596,-2.399336 14,-2.383402 12.60734,0.02688 15.46245,1.73621 33.7118,20.182951 17.46142,17.650282 19.25062,20.695022 19.27325,32.797862 0.0253,13.55549 1.62095,11.58243 -56.611,70.00211 l -51.83501,52.00211 51.37737,51.49789 c 58.11287,58.2492 56.95004,56.81127 57.01062,70.49789 0.0553,12.49236 -1.64822,15.33167 -20.23481,33.72617 -8.63072,8.54153 -17.0513,16.21798 -18.71239,17.05877 -8.24767,4.17472 -19.92036,4.03035 -28.71248,-0.35513 -2.85574,-1.42443 -21.38446,-19.20848 -56.01289,-53.7617 l -51.74553,-51.63317 -52.25447,52.0726 C 79.329754,417.87763 70.750805,425.98609 66.5,427.72205 c -6.760208,2.76076 -12.907936,3.36993 -19.512573,1.93348 z"
       id="path20"
       inkscape:connector-curvature="0" />
    <path
       style="fill:#ffffff"
       d="M 40.5,427.17634 C 35.844531,424.89251 31.203253,420.89333 19.788196,409.32993 2.8006382,392.1216 0.6879164,388.62196 0.57258678,377.5 0.43046208,363.79402 -1.7995388,366.5575 56.853832,307.75469 L 109.4651,255.00937 57.784858,203.25469 C -0.76099727,144.62449 0.47897715,146.1682 0.52561549,131.96967 0.56382634,120.3368 2.9487321,116.42448 20.703209,98.869342 29.364471,90.305326 37.365937,83.297764 40,81.969507 c 6.252637,-3.152966 16.048899,-3.750864 23.643042,-1.443014 5.749931,1.747396 6.830022,2.749792 59.106958,54.855187 l 53.25,53.07526 53.25,-53.07526 c 52.27694,-52.105395 53.35703,-53.107791 59.10696,-54.855187 7.59414,-2.30785 17.3904,-1.709952 23.64304,1.443014 2.63406,1.328257 10.63553,8.335819 19.29679,16.899835 17.75448,17.555138 20.13938,21.467458 20.17759,33.100328 0.0466,14.19853 1.28662,12.65482 -57.25924,71.28502 l -51.68024,51.75468 52.61127,52.74532 c 58.69023,58.83977 56.40899,56.00955 56.29571,69.84298 -0.0924,11.28286 -2.55878,15.19193 -21.16056,33.53816 -13.76924,13.58008 -16.46641,15.79034 -21.15469,17.33569 -7.28389,2.40091 -18.86367,1.75 -25.12663,-1.41239 -3.1194,-1.5751 -20.37689,-18.10963 -56.25,-53.89354 L 176,321.54427 124.25,373.16559 C 88.583197,408.74371 71.101461,425.49727 68,427.07258 c -3.346877,1.69996 -6.678121,2.38323 -13,2.66642 -7.792107,0.34905 -8.999689,0.13563 -14.5,-2.56266 z"
       id="path18"
       inkscape:connector-curvature="0" />
    <path
       style="fill:#ffffff"
       d="M 40.5,427.16645 C 35.833156,424.88473 31.231145,420.92159 19.788196,409.32993 2.782319,392.10305 0.66301882,388.59424 0.56306601,377.5 0.43967986,363.80478 -1.7710995,366.54409 56.851568,307.75463 L 109.4473,255.00926 57.782585,203.25421 C -0.72726681,144.64205 0.54454355,146.22683 0.5999504,132 0.64499919,120.43281 2.6109308,117.22781 20.916135,98.87908 34.752096,85.010221 37.172967,83.008298 42.5,81.030458 50.158985,78.186802 60.250421,78.55896 67,81.933984 70.152901,83.510543 87.141317,99.796826 123.75,136.3385 L 176,188.49286 228.25,136.3385 C 264.85868,99.796826 281.8471,83.510543 285,81.933984 c 6.78001,-3.390238 16.85292,-3.75035 24.5,-0.875886 5.16166,1.940219 7.93569,4.15463 19.85381,15.848621 7.6196,7.476301 15.11952,15.419731 16.66648,17.652061 4.04139,5.83187 6.33218,14.46461 5.53386,20.85412 -1.47877,11.83566 -1.67991,12.07362 -57.34366,67.84173 l -51.65779,51.75463 52.59573,52.74537 c 58.62267,58.78946 56.41189,56.05015 56.2885,69.74537 -0.10062,11.1685 -2.18587,14.5865 -19.60774,32.13972 -18.33411,18.47233 -22.31265,20.78924 -34.67998,20.19594 -13.40172,-0.64292 -11.92127,0.56678 -69.39921,-56.70728 L 176,321.56195 124.25,373.12838 c -57.774629,57.5697 -56.000261,56.12829 -69.75,56.66142 -7.166466,0.27786 -8.625151,0.005 -14,-2.62335 z"
       id="path16"
       inkscape:connector-curvature="0" />
    <path
       style="fill:#ffffff"
       d="m 42,427.85623 c -4.508191,-1.771 -8.13602,-4.75681 -20.117847,-16.55762 C 6.2399731,395.89275 2.6287094,390.76832 0.92701376,381.563 -0.30651621,374.89022 1.4950423,366.28932 5.3867182,360.27172 6.7282949,358.19727 30.59011,333.77667 58.412974,306.00371 86.235838,278.23076 109,255.0541 109,254.50004 109,253.94597 86.021243,230.5443 57.936095,202.49632 29.850947,174.44835 5.8171803,149.7 4.5277247,147.5 -0.56665038,138.80825 -0.73582927,127.35688 4.0884639,117.76735 5.3113829,115.33648 12.532407,107.21963 20.867639,98.906587 38.223591,81.596834 41.673279,79.513965 53,79.505563 67.3303,79.494933 64.252657,77.02622 123.25,135.85619 L 176,188.45654 228.75,135.85619 C 287.74734,77.02622 284.6697,79.494933 299,79.505563 c 11.32672,0.0084 14.77641,2.091271 32.13236,19.401024 8.33523,8.313043 15.55626,16.429893 16.77918,18.860763 4.82429,9.58953 4.65511,21.0409 -0.43926,29.73265 -1.28946,2.2 -25.32323,26.94835 -53.40837,54.99632 C 265.97876,230.5443 243,253.93464 243,254.47486 c 0,0.54022 23.57126,24.61688 52.38058,53.50368 49.63307,49.76656 52.47466,52.80995 54.17433,58.02146 2.784,8.53628 2.31526,16.79013 -1.37978,24.29582 -2.43452,4.94523 -6.15838,9.28294 -17.87515,20.82175 -12.87321,12.6777 -15.5811,14.86843 -20.79998,16.82744 -7.64841,2.871 -17.72341,2.50954 -24.5,-0.87899 -3.1529,-1.57656 -20.14132,-17.86285 -56.75,-54.40452 L 176,320.50714 123.75,372.6615 C 87.255794,409.08891 70.143042,425.49667 67,427.0736 c -6.584924,3.30379 -17.696718,3.65164 -25,0.78263 z"
       id="path14"
       inkscape:connector-curvature="0" />
  </g>
</svg>
