<?xml version="1.0" encoding="UTF-8" standalone="no"?>
<!-- Created with Inkscape (http://www.inkscape.org/) -->

<svg
   xmlns:dc="http://purl.org/dc/elements/1.1/"
   xmlns:cc="http://creativecommons.org/ns#"
   xmlns:rdf="http://www.w3.org/1999/02/22-rdf-syntax-ns#"
   xmlns:svg="http://www.w3.org/2000/svg"
   xmlns="http://www.w3.org/2000/svg"
   xmlns:sodipodi="http://sodipodi.sourceforge.net/DTD/sodipodi-0.dtd"
   xmlns:inkscape="http://www.inkscape.org/namespaces/inkscape"
   version="1.1"
   id="svg2"
   width="597.33331"
   height="682.66669"
   viewBox="0 0 597.33331 682.66669"
   sodipodi:docname="icon.svg"
   inkscape:version="0.92.3 (2405546, 2018-03-11)">
  <metadata
     id="metadata8">
    <rdf:RDF>
      <cc:Work
         rdf:about="">
        <dc:format>image/svg+xml</dc:format>
        <dc:type
           rdf:resource="http://purl.org/dc/dcmitype/StillImage" />
        <dc:title></dc:title>
      </cc:Work>
    </rdf:RDF>
  </metadata>
  <defs
     id="defs6" />
  <sodipodi:namedview
     pagecolor="#ffffff"
     bordercolor="#666666"
     borderopacity="1"
     objecttolerance="10"
     gridtolerance="10"
     guidetolerance="10"
     inkscape:pageopacity="0"
     inkscape:pageshadow="2"
     inkscape:window-width="1600"
     inkscape:window-height="837"
     id="namedview4"
     showgrid="false"
     inkscape:zoom="0.48889803"
     inkscape:cx="731.11865"
     inkscape:cy="341.33334"
     inkscape:window-x="-8"
     inkscape:window-y="-8"
     inkscape:window-maximized="1"
     inkscape:current-layer="svg2" />
  <g
     id="g12"
     transform="translate(0.13288,7.682086)">
    <path
       style="fill:#fefefe;stroke-width:1.33333337"
       d="M 30.666665,404.09316 C 19.530883,400.67133 9.4682336,392.14431 3.8080331,381.33335 0.74742333,375.48759 0.66666664,374.45929 0.66666664,341.33334 c 0,-33.12594 0.0807567,-34.15424 3.14136646,-40 4.2800654,-8.1749 11.5351899,-15.52537 19.5252989,-19.78186 l 6.666667,-3.55147 H 298.66665 567.33331 l 6,3.14136 c 8.17491,4.28007 15.52537,11.5352 19.78187,19.52531 l 3.55146,6.66666 v 34 34.00001 l -3.55146,6.66666 c -4.2565,7.99011 -11.60696,15.24524 -19.78187,19.52531 l -6,3.14136 -266.66666,0.22537 C 153.99999,405.01601 32.499999,404.65651 30.666665,404.09316 Z"
       id="path22"
       inkscape:connector-curvature="0" />
    <path
       style="fill:#f5f5f5;stroke-width:1.33333337"
       d="m 34.333332,404.45031 c 0.916667,-0.36988 2.416667,-0.36988 3.333333,0 0.916667,0.36988 0.166667,0.67252 -1.666666,0.67252 -1.833334,0 -2.583334,-0.30264 -1.666667,-0.67252 z m 525.333308,0 c 0.91667,-0.36988 2.41667,-0.36988 3.33334,0 0.91666,0.36988 0.16666,0.67252 -1.66667,0.67252 -1.83333,0 -2.58333,-0.30264 -1.66667,-0.67252 z m -547.738418,-12.11696 -4.594889,-5 5,4.59489 c 4.653892,4.27681 5.613049,5.40511 4.594889,5.40511 -0.222811,0 -2.472811,-2.25 -5,-5 z m 572.071758,0.33333 c 2.4877,-2.56667 4.8231,-4.66667 5.18977,-4.66667 0.36667,0 -1.36873,2.1 -3.85644,4.66667 -2.48771,2.56667 -4.82311,4.66667 -5.18977,4.66667 -0.36667,0 1.36873,-2.1 3.85644,-4.66667 z M 0.21052631,369.33335 c 0,-1.83334 0.30263156,-2.58334 0.67251459,-1.66667 0.369883,0.91667 0.369883,2.41667 0,3.33333 -0.36988303,0.91667 -0.67251459,0.16667 -0.67251459,-1.66666 z m 595.99997369,0 c 0,-1.83334 0.30264,-2.58334 0.67252,-1.66667 0.36988,0.91667 0.36988,2.41667 0,3.33333 -0.36988,0.91667 -0.67252,0.16667 -0.67252,-1.66666 z M 0.21052631,313.33334 c 0,-1.83333 0.30263156,-2.58333 0.67251459,-1.66666 0.369883,0.91666 0.369883,2.41666 0,3.33333 -0.36988303,0.91667 -0.67251459,0.16667 -0.67251459,-1.66667 z m 595.99997369,0 c 0,-1.83333 0.30264,-2.58333 0.67252,-1.66666 0.36988,0.91666 0.36988,2.41666 0,3.33333 -0.36988,0.91667 -0.67252,0.16667 -0.67252,-1.66667 z M 12,290.00001 c 2.48771,-2.56667 4.823111,-4.66667 5.189778,-4.66667 0.366667,0 -1.368735,2.1 -3.856445,4.66667 -2.487711,2.56667 -4.8231115,4.66667 -5.1897781,4.66667 -0.3666667,0 1.3687334,-2.1 3.8564451,-4.66667 z m 571.9282,-0.33333 -4.59489,-5 5,4.59489 c 2.75,2.52719 5,4.77719 5,5 0,1.01816 -1.12829,0.0591 -5.40511,-4.59489 z M 34.333332,277.78364 c 0.916667,-0.36988 2.416667,-0.36988 3.333333,0 0.916667,0.36988 0.166667,0.67252 -1.666666,0.67252 -1.833334,0 -2.583334,-0.30264 -1.666667,-0.67252 z m 525.333308,0 c 0.91667,-0.36988 2.41667,-0.36988 3.33334,0 0.91666,0.36988 0.16666,0.67252 -1.66667,0.67252 -1.83333,0 -2.58333,-0.30264 -1.66667,-0.67252 z"
       id="path20"
       inkscape:connector-curvature="0" />
    <path
       style="fill:#f2f2f2;stroke-width:1.33333337"
       d="m 11.899085,392.33335 -3.2324187,-3.66667 3.6666667,3.23241 c 2.016666,1.77784 3.666666,3.42784 3.666666,3.66667 0,1.04571 -1.079732,0.19464 -4.100914,-3.23241 z m 572.100895,0.33333 c 1.72233,-1.83333 3.4315,-3.33333 3.79817,-3.33333 0.36667,0 -0.74251,1.5 -2.46484,3.33333 -1.72233,1.83333 -3.43151,3.33333 -3.79817,3.33333 -0.36667,0 0.7425,-1.5 2.46484,-3.33333 z M 0.10526316,368.55557 c 0.0639785,-1.55326 0.37992038,-1.8692 0.80555552,-0.80556 0.38516082,0.9625 0.33779242,2.11251 -0.10526319,2.55556 -0.44305554,0.44306 -0.75818711,-0.34445 -0.70029233,-1.75 z m 595.99997684,0 c 0.064,-1.55326 0.37992,-1.8692 0.80555,-0.80556 0.38516,0.9625 0.3378,2.11251 -0.1052,2.55556 -0.44305,0.44306 -0.75819,-0.34445 -0.70029,-1.75 z M 0.10526316,313.8889 c 0.0639785,-1.55326 0.37992038,-1.8692 0.80555552,-0.80556 0.38516082,0.9625 0.33779242,2.1125 -0.10526319,2.55556 -0.44305554,0.44306 -0.75818711,-0.34445 -0.70029233,-1.75 z m 595.99997684,0 c 0.064,-1.55326 0.37992,-1.8692 0.80555,-0.80556 0.38516,0.9625 0.3378,2.1125 -0.1052,2.55556 -0.44305,0.44306 -0.75819,-0.34445 -0.70029,-1.75 z m -12.17704,-24.22222 -4.59489,-5 5,4.59489 c 2.75,2.52719 5,4.77719 5,5 0,1.01816 -1.12829,0.0591 -5.40511,-4.59489 z M 12,290.00001 c 1.722326,-1.83333 3.431503,-3.33333 3.79817,-3.33333 0.366667,0 -0.742511,1.5 -2.464837,3.33333 -1.722327,1.83333 -3.4315042,3.33333 -3.7981708,3.33333 -0.3666667,0 0.7425098,-1.5 2.4648378,-3.33333 z"
       id="path18"
       inkscape:connector-curvature="0" />
    <path
       style="fill:#ededed;stroke-width:1.33333337"
       d="m 11.899085,392.33335 -3.2324187,-3.66667 3.6666667,3.23241 c 2.016666,1.77784 3.666666,3.42784 3.666666,3.66667 0,1.04571 -1.079732,0.19464 -4.100914,-3.23241 z m 572.100895,0.33333 c 1.72233,-1.83333 3.4315,-3.33333 3.79817,-3.33333 0.36667,0 -0.74251,1.5 -2.46484,3.33333 -1.72233,1.83333 -3.43151,3.33333 -3.79817,3.33333 -0.36667,0 0.7425,-1.5 2.46484,-3.33333 z M 0.10526316,368.55557 c 0.0639785,-1.55326 0.37992038,-1.8692 0.80555552,-0.80556 0.38516082,0.9625 0.33779242,2.11251 -0.10526319,2.55556 -0.44305554,0.44306 -0.75818711,-0.34445 -0.70029233,-1.75 z m 595.99997684,0 c 0.064,-1.55326 0.37992,-1.8692 0.80555,-0.80556 0.38516,0.9625 0.3378,2.11251 -0.1052,2.55556 -0.44305,0.44306 -0.75819,-0.34445 -0.70029,-1.75 z M 0.10526316,313.8889 c 0.0639785,-1.55326 0.37992038,-1.8692 0.80555552,-0.80556 0.38516082,0.9625 0.33779242,2.1125 -0.10526319,2.55556 -0.44305554,0.44306 -0.75818711,-0.34445 -0.70029233,-1.75 z m 595.99997684,0 c 0.064,-1.55326 0.37992,-1.8692 0.80555,-0.80556 0.38516,0.9625 0.3378,2.1125 -0.1052,2.55556 -0.44305,0.44306 -0.75819,-0.34445 -0.70029,-1.75 z M 12,290.00001 c 1.722326,-1.83333 3.431503,-3.33333 3.79817,-3.33333 0.366667,0 -0.742511,1.5 -2.464837,3.33333 -1.722327,1.83333 -3.4315042,3.33333 -3.7981708,3.33333 -0.3666667,0 0.7425098,-1.5 2.4648378,-3.33333 z m 571.89906,-0.33333 -3.23242,-3.66667 3.66667,3.23241 c 3.42705,3.02119 4.27812,4.10092 3.23241,4.10092 -0.23882,0 -1.88882,-1.65 -3.66666,-3.66666 z"
       id="path16"
       inkscape:connector-curvature="0" />
    <path
       style="fill:#e9e9e9;stroke-width:1.33333337"
       d="m 583.89906,289.66668 -3.23242,-3.66667 3.66667,3.23241 c 3.42705,3.02119 4.27812,4.10092 3.23241,4.10092 -0.23882,0 -1.88882,-1.65 -3.66666,-3.66666 z"
       id="path14"
       inkscape:connector-curvature="0" />
  </g>
</svg>
